<svg xmlns="http://www.w3.org/2000/svg" width="582.5001199999999" height="443.045" viewBox="-10 -10 582.5001199999999 443.045" style="background-color: white;"><rect x="-10" y="-10" width="582.5001199999999" height="443.045" fill="white"/><g transform="matrix(1 0 0 -1 0 423.045)"><g transform="matrix(0.315779,0,0,0.315779,438.428,281.861)"><g transform="matrix(2.84091,0,0,1.58784,187.5,117.452)"><rect x="0" y="0" width="132" height="148" rx="2" ry="2" fill="none" stroke="#C0C0C0"/></g><g><path d="M 324.299 80.2425 L 349.699014 80.2425 L 349.699014 99.292485 L 324.299 99.292485 Z M 290.899 80.2425 L 316.299014 80.2425 L 316.299014 99.292485 L 290.899 99.292485 Z M 257.499 80.2425 L 282.899014 80.2425 L 282.899014 99.292485 L 257.499 99.292485 Z M 224.099 80.2425 L 249.499014 80.2425 L 249.499014 99.292485 L 224.099 99.292485 Z M 190.699 80.2425 L 216.099014 80.2425 L 216.099014 99.292485 L 190.699 99.292485 Z M 157.299 80.2425 L 182.699014 80.2425 L 182.699014 99.292485 L 157.299 99.292485 Z M 123.962 80.2425 L 149.362014 80.2425 L 149.362014 99.292485 L 123.962 99.292485 Z M 90.499 80.2425 L 115.899014 80.2425 L 115.899014 99.292485 L 90.499 99.292485 Z M 57.0989 80.2425 L 82.498914 80.2425 L 82.498914 99.292485 L 57.0989 99.292485 Z M 23.6989 80.2425 L 49.09891399999999 80.2425 L 49.09891399999999 99.292485 L 23.6989 99.292485 Z" fill="none" fill-rule="nonzero" stroke="#0000FF" stroke-width="0.1"/></g><g><path d="M 324.299 107.434 L 349.699014 107.434 L 349.699014 126.48398499999999 L 324.299 126.48398499999999 Z M 290.899 107.434 L 316.299014 107.434 L 316.299014 126.48398499999999 L 290.899 126.48398499999999 Z M 257.499 107.434 L 282.899014 107.434 L 282.899014 126.48398499999999 L 257.499 126.48398499999999 Z M 224.099 107.434 L 249.499014 107.434 L 249.499014 126.48398499999999 L 224.099 126.48398499999999 Z M 190.699 107.434 L 216.099014 107.434 L 216.099014 126.48398499999999 L 190.699 126.48398499999999 Z M 157.299 107.434 L 182.699014 107.434 L 182.699014 126.48398499999999 L 157.299 126.48398499999999 Z M 123.962 107.434 L 149.362014 107.434 L 149.362014 126.48398499999999 L 123.962 126.48398499999999 Z M 90.499 107.434 L 115.899014 107.434 L 115.899014 126.48398499999999 L 90.499 126.48398499999999 Z M 57.0989 107.434 L 82.498914 107.434 L 82.498914 126.48398499999999 L 57.0989 126.48398499999999 Z M 23.6989 107.434 L 49.09891399999999 107.434 L 49.09891399999999 126.48398499999999 L 23.6989 126.48398499999999 Z" fill="none" fill-rule="nonzero" stroke="#FF0000" stroke-width="0.1"/></g><g><path d="M 324.299 134.625 L 349.699014 134.625 L 349.699014 153.674985 L 324.299 153.674985 Z M 290.899 134.625 L 316.299014 134.625 L 316.299014 153.674985 L 290.899 153.674985 Z M 257.499 134.625 L 282.899014 134.625 L 282.899014 153.674985 L 257.499 153.674985 Z M 224.099 134.625 L 249.499014 134.625 L 249.499014 153.674985 L 224.099 153.674985 Z M 190.699 134.625 L 216.099014 134.625 L 216.099014 153.674985 L 190.699 153.674985 Z M 157.299 134.625 L 182.699014 134.625 L 182.699014 153.674985 L 157.299 153.674985 Z M 123.962 134.625 L 149.362014 134.625 L 149.362014 153.674985 L 123.962 153.674985 Z M 90.499 134.625 L 115.899014 134.625 L 115.899014 153.674985 L 90.499 153.674985 Z M 57.0989 134.625 L 82.498914 134.625 L 82.498914 153.674985 L 57.0989 153.674985 Z M 23.6989 134.625 L 49.09891399999999 134.625 L 49.09891399999999 153.674985 L 23.6989 153.674985 Z" fill="none" fill-rule="nonzero" stroke="#00FF00" stroke-width="0.1"/></g><g><path d="M 324.299 161.816 L 349.699014 161.816 L 349.699014 180.865985 L 324.299 180.865985 Z M 290.899 161.816 L 316.299014 161.816 L 316.299014 180.865985 L 290.899 180.865985 Z M 257.499 161.816 L 282.899014 161.816 L 282.899014 180.865985 L 257.499 180.865985 Z M 224.099 161.816 L 249.499014 161.816 L 249.499014 180.865985 L 224.099 180.865985 Z M 190.699 161.816 L 216.099014 161.816 L 216.099014 180.865985 L 190.699 180.865985 Z M 157.299 161.816 L 182.699014 161.816 L 182.699014 180.865985 L 157.299 180.865985 Z M 123.962 161.816 L 149.362014 161.816 L 149.362014 180.865985 L 123.962 180.865985 Z M 90.499 161.816 L 115.899014 161.816 L 115.899014 180.865985 L 90.499 180.865985 Z M 57.0989 161.816 L 82.498914 161.816 L 82.498914 180.865985 L 57.0989 180.865985 Z M 23.6989 161.816 L 49.09891399999999 161.816 L 49.09891399999999 180.865985 L 23.6989 180.865985 Z" fill="none" fill-rule="nonzero" stroke="#FFFF00" stroke-width="0.1"/></g><g><path d="M 324.334 190.27 L 349.734014 190.27 L 349.734014 209.319985 L 324.334 209.319985 Z M 290.934 190.27 L 316.334014 190.27 L 316.334014 209.319985 L 290.934 209.319985 Z M 257.534 190.27 L 282.934014 190.27 L 282.934014 209.319985 L 257.534 209.319985 Z M 224.134 190.27 L 249.53401399999998 190.27 L 249.53401399999998 209.319985 L 224.134 209.319985 Z M 190.734 190.27 L 216.134014 190.27 L 216.134014 209.319985 L 190.734 209.319985 Z M 157.334 190.27 L 182.734014 190.27 L 182.734014 209.319985 L 157.334 209.319985 Z M 123.997 190.27 L 149.397014 190.27 L 149.397014 209.319985 L 123.997 209.319985 Z M 90.5338 190.27 L 115.933814 190.27 L 115.933814 209.319985 L 90.5338 209.319985 Z M 57.1338 190.27 L 82.533814 190.27 L 82.533814 209.319985 L 57.1338 209.319985 Z M 23.7337 190.27 L 49.133714 190.27 L 49.133714 209.319985 L 23.7337 209.319985 Z" fill="none" fill-rule="nonzero" stroke="#FF8000" stroke-width="0.1"/></g><g><path d="M 324.334 217.461 L 349.734014 217.461 L 349.734014 236.510985 L 324.334 236.510985 Z M 290.934 217.461 L 316.334014 217.461 L 316.334014 236.510985 L 290.934 236.510985 Z M 257.534 217.461 L 282.934014 217.461 L 282.934014 236.510985 L 257.534 236.510985 Z M 224.134 217.461 L 249.53401399999998 217.461 L 249.53401399999998 236.510985 L 224.134 236.510985 Z M 190.734 217.461 L 216.134014 217.461 L 216.134014 236.510985 L 190.734 236.510985 Z M 157.334 217.461 L 182.734014 217.461 L 182.734014 236.510985 L 157.334 236.510985 Z M 123.997 217.461 L 149.397014 217.461 L 149.397014 236.510985 L 123.997 236.510985 Z M 90.5338 217.461 L 115.933814 217.461 L 115.933814 236.510985 L 90.5338 236.510985 Z M 57.1338 217.461 L 82.533814 217.461 L 82.533814 236.510985 L 57.1338 236.510985 Z M 23.7337 217.461 L 49.133714 217.461 L 49.133714 236.510985 L 23.7337 236.510985 Z" fill="none" fill-rule="nonzero" stroke="#00FFFF" stroke-width="0.1"/></g><g transform="matrix(1,0,0,1,-0.327789,-338.802)"><g transform="matrix(1,0,0,1,324.414,373.045)"><text x="0" y="0" fill="#FF00FF"></text></g><g transform="matrix(1,0,0,1,291.071,373.045)"><text x="0" y="0" fill="#FF00FF"></text></g><g transform="matrix(1,0,0,1,257.647,373.045)"><text x="0" y="0" fill="#FF00FF"></text></g><g transform="matrix(1,0,0,1,224.202,373.045)"><text x="0" y="0" fill="#FF00FF"></text></g><g transform="matrix(1,0,0,1,190.871,373.045)"><text x="0" y="0" fill="#FF00FF"></text></g><g transform="matrix(1,0,0,1,157.424,373.045)"><text x="0" y="0" fill="#FF00FF"></text></g><g transform="matrix(1,0,0,1,124.027,373.045)"><text x="0" y="0" fill="#FF00FF"></text></g><g transform="matrix(1,0,0,1,90.6353,373.045)"><text x="0" y="0" fill="#FF00FF"></text></g><g transform="matrix(1,0,0,1,57.2236,373.045)"><text x="0" y="0" fill="#FF00FF"></text></g><g transform="matrix(1,0,0,1,23.8138,373.045)"><text x="0" y="0" fill="#FF00FF"></text></g></g><g transform="matrix(1,0,0,1,184.375,21.5028)"><text x="0" y="0" fill="#FF00FF"></text></g><g transform="matrix(1,0,0,1,185.065,11.3462)"><text x="0" y="0" fill="#FF00FF"></text></g><g transform="matrix(1,0,0,1,352.075,79.3112)"><text x="0" y="0" fill="#FF00FF"></text></g><g transform="matrix(1,0,0,1,352.075,106.502)"><text x="0" y="0" fill="#FF00FF"></text></g><g transform="matrix(1,0,0,1,352.075,133.693)"><text x="0" y="0" fill="#FF00FF"></text></g><g transform="matrix(1,0,0,1,352.075,160.884)"><text x="0" y="0" fill="#FF00FF"></text></g><g transform="matrix(1,0,0,1,352.075,188.075)"><text x="0" y="0" fill="#FF00FF"></text></g><g transform="matrix(1,0,0,1,352.075,215.266)"><text x="0" y="0" fill="#FF00FF"></text></g><g transform="matrix(1,0,0,1,352.075,52.1202)"><text x="0" y="0" fill="#FF00FF"></text></g><g transform="matrix(0.707107,0.707107,-0.707107,0.707107,356.09,30.7188)"><text x="0" y="0" fill="#FF00FF"></text></g><g transform="matrix(0.707107,0.707107,-0.707107,0.707107,352.581,37.9078)"><text x="0" y="0" fill="#FF00FF"></text></g><g transform="matrix(0.590698,0,0,0.705555,324.299,53.0515)"><rect x="0" y="0" width="43" height="27" rx="0" ry="0" fill="none" stroke="#000000"/></g><g transform="matrix(0.590698,0,0,0.705555,290.899,53.0515)"><rect x="0" y="0" width="43" height="27" rx="0" ry="0" fill="none" stroke="#000000"/></g><g transform="matrix(0.590698,0,0,0.705555,257.499,53.0515)"><rect x="0" y="0" width="43" height="27" rx="0" ry="0" fill="none" stroke="#000000"/></g><g transform="matrix(0.590698,0,0,0.705555,224.099,53.0515)"><rect x="0" y="0" width="43" height="27" rx="0" ry="0" fill="none" stroke="#000000"/></g><g transform="matrix(0.590698,0,0,0.705555,190.699,53.0515)"><rect x="0" y="0" width="43" height="27" rx="0" ry="0" fill="none" stroke="#000000"/></g><g transform="matrix(0.590698,0,0,0.705555,157.299,53.0515)"><rect x="0" y="0" width="43" height="27" rx="0" ry="0" fill="none" stroke="#000000"/></g><g transform="matrix(0.590698,0,0,0.705555,123.962,53.0515)"><rect x="0" y="0" width="43" height="27" rx="0" ry="0" fill="none" stroke="#000000"/></g><g transform="matrix(0.590698,0,0,0.705555,90.499,53.0515)"><rect x="0" y="0" width="43" height="27" rx="0" ry="0" fill="none" stroke="#000000"/></g><g transform="matrix(0.590698,0,0,0.705555,57.0989,53.0515)"><rect x="0" y="0" width="43" height="27" rx="0" ry="0" fill="none" stroke="#000000"/></g><g transform="matrix(0.590698,0,0,0.705555,23.6989,53.0515)"><rect x="0" y="0" width="43" height="27" rx="0" ry="0" fill="none" stroke="#000000"/></g></g></g></svg>